<svg xmlns="http://www.w3.org/2000/svg" viewBox="0 0 24 24" fill="none">
  <path d="M11.571 11.513H0a5.218 5.218 0 0 0 5.232 5.215h2.13v2.057A5.215 5.215 0 0 0 12.575 24V12.517a1.005 1.005 0 0 0-1.005-1.004Z" fill="#2684FF"/>
  <path d="M5.968 5.756H17.54a5.218 5.218 0 0 1-5.232 5.215h-2.13v2.057A5.215 5.215 0 0 1 4.964 18.244V6.76c0-.554.45-1.004 1.004-1.004Z" fill="#2684FF"/>
  <path d="M11.84 0h11.572a5.218 5.218 0 0 1-5.232 5.215h-2.13v2.057A5.215 5.215 0 0 1 10.836 12.488V1.004C10.836.45 11.285 0 11.84 0Z" fill="#2684FF"/>
</svg> 