<svg xmlns="http://www.w3.org/2000/svg" viewBox="0 0 24 24" fill="none">
  <path d="M19.27 5.33C17.94 2.5 14.68 1.17 11.85 2.5 9.02 3.83 7.69 7.09 9.02 9.92l7.95-2.98c.57-1.58-.13-3.42-1.7-3.99zM20.22 15.58l-3.98-1.48-1.48 3.98c1.33 2.83 4.59 4.16 7.42 2.83 2.83-1.33 4.16-4.59 2.83-7.42-.57-1.58-2.41-2.28-3.99-1.7zM8.52 20.22l3.98 1.48 1.48-3.98c-1.33-2.83-4.59-4.16-7.42-2.83C3.73 16.22 2.4 19.48 3.73 22.31c.57 1.58 2.41 2.28 3.99 1.7z" fill="#E01E5A"/>
  <path d="M15.58 3.78L14.1 7.76l3.98 1.48c2.83-1.33 4.16-4.59 2.83-7.42C19.58.99 16.32-.34 13.49.99c-1.58.57-2.28 2.41-1.7 3.99zM3.78 8.42l3.98 1.48 1.48-3.98C7.91 3.09 4.65 1.76 1.82 3.09-.01 4.42-1.34 7.68-.01 10.51c.57 1.58 2.41 2.28 3.99 1.7z" fill="#36C5F0"/>
</svg> 